<svg xmlns="http://www.w3.org/2000/svg" width="256" height="256" viewBox="-15.5 -29.5 190 190">
  <title>Vector remake of icon</title>
  <g fill="#00ADEF">
    <path d="M 75.11 109.91 L 74.26 110.31 L 73.02 110.46 L 71.62 110.49 L 70.17 110.50 L 68.71 110.50 L 67.25 110.50 L 65.79 110.50 L 64.33 110.50 L 62.87 110.50 L 61.42 110.50 L 59.96 110.50 L 58.50 110.50 L 57.04 110.50 L 55.58 110.50 L 54.12 110.50 L 52.67 110.50 L 51.21 110.50 L 49.75 110.50 L 48.29 110.50 L 46.83 110.50 L 45.37 110.50 L 43.91 110.50 L 42.46 110.50 L 41.00 110.50 L 39.54 110.50 L 38.08 110.50 L 36.62 110.50 L 35.16 110.50 L 33.71 110.50 L 32.25 110.50 L 30.79 110.50 L 29.33 110.50 L 27.87 110.50 L 26.41 110.50 L 24.96 110.50 L 23.50 110.49 L 22.05 110.47 L 20.63 110.37 L 19.27 110.15 L 17.94 109.84 L 16.62 109.51 L 15.31 109.14 L 14.05 108.67 L 12.82 108.11 L 11.63 107.45 L 10.49 106.69 L 9.40 105.80 L 8.35 104.82 L 7.31 103.81 L 6.28 102.78 L 5.26 101.74 L 4.28 100.69 L 3.39 99.60 L 2.63 98.46 L 2.02 97.25 L 1.53 96.00 L 1.09 94.72 L 0.67 93.44 L 0.25 92.15 L -0.12 90.84 L -0.36 89.48 L -0.47 88.07 L -0.49 86.62 L -0.50 85.17 L -0.50 83.71 L -0.50 82.25 L -0.50 80.79 L -0.50 79.33 L -0.50 77.88 L -0.50 76.42 L -0.50 74.96 L -0.50 73.50 L -0.50 72.04 L -0.50 70.58 L -0.50 69.12 L -0.50 67.67 L -0.50 66.21 L -0.50 64.75 L -0.50 63.29 L -0.50 61.83 L -0.50 60.37 L -0.50 58.92 L -0.50 57.46 L -0.50 56.00 L -0.50 54.54 L -0.50 53.08 L -0.50 51.62 L -0.50 50.17 L -0.50 48.71 L -0.50 47.25 L -0.50 45.79 L -0.50 44.33 L -0.50 42.87 L -0.50 41.41 L -0.50 39.96 L -0.50 38.50 L -0.50 37.04 L -0.50 35.58 L -0.50 34.12 L -0.50 32.66 L -0.50 31.21 L -0.50 29.75 L -0.50 28.29 L -0.50 26.83 L -0.50 25.37 L -0.50 23.92 L -0.48 22.47 L -0.40 21.04 L -0.21 19.66 L 0.11 18.33 L 0.51 17.04 L 0.98 15.78 L 1.51 14.54 L 2.09 13.32 L 2.71 12.12 L 3.37 10.93 L 4.11 9.78 L 4.97 8.68 L 5.92 7.62 L 6.94 6.60 L 8.00 5.65 L 9.12 4.83 L 10.29 4.13 L 11.49 3.51 L 12.71 2.93 L 13.94 2.37 L 15.20 1.90 L 16.50 1.52 L 17.82 1.18 L 19.15 0.86 L 20.51 0.64 L 21.93 0.53 L 23.37 0.51 L 24.83 0.50 L 26.29 0.50 L 27.75 0.50 L 29.21 0.50 L 30.66 0.50 L 32.12 0.50 L 33.58 0.50 L 35.04 0.50 L 36.50 0.50 L 37.95 0.50 L 39.41 0.52 L 40.83 0.59 L 42.22 0.76 L 43.57 1.04 L 44.89 1.36 L 46.21 1.71 L 47.49 2.13 L 48.73 2.65 L 49.95 3.24 L 51.15 3.86 L 52.33 4.52 L 53.47 5.29 L 54.57 6.17 L 55.62 7.14 L 56.67 8.13 L 57.75 9.05 L 58.91 9.77 L 60.18 10.22 L 61.56 10.42 L 62.99 10.48 L 64.44 10.50 L 65.90 10.50 L 67.36 10.50 L 68.82 10.50 L 70.27 10.50 L 71.73 10.50 L 73.19 10.50 L 74.65 10.50 L 76.11 10.50 L 77.57 10.50 L 79.02 10.50 L 80.48 10.50 L 81.94 10.50 L 83.40 10.50 L 84.86 10.50 L 86.32 10.50 L 87.77 10.50 L 89.23 10.50 L 90.69 10.50 L 92.15 10.50 L 93.61 10.50 L 95.07 10.50 L 96.53 10.50 L 97.98 10.50 L 99.44 10.50 L 100.90 10.50 L 102.36 10.50 L 103.82 10.50 L 105.28 10.50 L 106.73 10.50 L 108.19 10.50 L 109.65 10.50 L 111.11 10.50 L 112.57 10.50 L 114.03 10.50 L 115.48 10.52 L 116.90 10.60 L 118.29 10.77 L 119.63 11.05 L 120.96 11.38 L 122.27 11.72 L 123.55 12.15 L 124.79 12.69 L 125.98 13.32 L 127.14 14.05 L 128.25 14.89 L 129.31 15.85 L 130.35 16.86 L 131.38 17.89 L 132.39 18.93 L 133.34 19.99 L 134.16 21.11 L 134.86 22.28 L 135.48 23.48 L 136.07 24.70 L 136.62 25.92 L 137.10 27.18 L 137.48 28.49 L 137.82 29.80 L 138.13 31.13 L 138.36 32.50 L 138.46 33.91 L 138.49 35.36 L 138.50 36.81 L 138.50 38.27 L 138.50 39.73 L 138.50 41.19 L 138.50 42.65 L 138.50 44.11 L 138.50 45.56 L 138.50 47.02 L 138.47 48.46 L 138.35 49.83 L 138.02 50.99 L 137.35 51.73 L 136.37 51.94 L 135.21 51.71 L 134.00 51.22 L 132.78 50.66 L 131.54 50.12 L 130.28 49.64 L 129.00 49.21 L 127.71 48.82 L 126.39 48.48 L 125.06 48.16 L 123.73 47.85 L 122.38 47.61 L 120.99 47.43 L 119.62 47.22 L 118.27 46.95 L 116.92 46.71 L 115.52 46.59 L 114.12 46.61 L 112.74 46.77 L 111.39 47.03 L 110.03 47.28 L 108.65 47.48 L 107.27 47.66 L 105.92 47.92 L 104.59 48.23 L 103.27 48.57 L 101.98 48.96 L 100.71 49.43 L 99.46 49.93 L 98.20 50.42 L 96.95 50.90 L 95.71 51.44 L 94.50 52.03 L 93.31 52.69 L 92.16 53.42 L 91.02 54.19 L 89.89 54.98 L 88.79 55.85 L 87.73 56.81 L 86.69 57.82 L 85.65 58.85 L 84.62 59.88 L 83.59 60.91 L 82.57 61.94 L 81.56 62.98 L 80.60 64.05 L 79.75 65.15 L 78.97 66.29 L 78.23 67.44 L 77.53 68.61 L 76.88 69.80 L 76.26 71.00 L 75.67 72.21 L 75.12 73.44 L 74.64 74.70 L 74.19 75.97 L 73.75 77.25 L 73.33 78.53 L 72.95 79.84 L 72.66 81.17 L 72.42 82.53 L 72.15 83.88 L 71.86 85.22 L 71.64 86.58 L 71.53 88.00 L 71.51 89.45 L 71.50 90.90 L 71.52 92.35 L 71.59 93.78 L 71.75 95.17 L 72.01 96.52 L 72.29 97.87 L 72.54 99.22 L 72.82 100.57 L 73.17 101.88 L 73.57 103.17 L 73.99 104.46 L 74.41 105.74 L 74.86 106.99 L 75.26 108.16 L 75.43 109.18 Z"/>
    <path d="M 119.85 131.14 L 118.12 131.36 L 116.35 131.46 L 114.55 131.45 L 112.78 131.35 L 111.06 131.11 L 109.37 130.80 L 107.68 130.46 L 106.01 130.11 L 104.36 129.70 L 102.74 129.22 L 101.14 128.67 L 99.57 128.07 L 98.03 127.40 L 96.52 126.66 L 95.03 125.85 L 93.55 125.02 L 92.11 124.11 L 90.73 123.05 L 89.40 121.86 L 88.10 120.60 L 86.82 119.31 L 85.55 118.02 L 84.34 116.70 L 83.23 115.34 L 82.23 113.93 L 81.30 112.49 L 80.41 111.04 L 79.57 109.57 L 78.80 108.07 L 78.12 106.53 L 77.51 104.96 L 76.96 103.37 L 76.44 101.76 L 75.99 100.13 L 75.66 98.44 L 75.40 96.73 L 75.13 95.02 L 74.84 93.32 L 74.65 91.60 L 74.63 89.85 L 74.77 88.11 L 75.03 86.40 L 75.31 84.69 L 75.56 82.98 L 75.87 81.28 L 76.25 79.62 L 76.71 77.99 L 77.23 76.39 L 77.87 74.83 L 78.60 73.31 L 79.38 71.81 L 80.18 70.32 L 81.01 68.85 L 81.91 67.40 L 82.91 65.99 L 84.01 64.63 L 85.22 63.31 L 86.49 62.01 L 87.78 60.73 L 89.07 59.46 L 90.40 58.27 L 91.78 57.20 L 93.21 56.27 L 94.69 55.44 L 96.18 54.64 L 97.69 53.89 L 99.22 53.18 L 100.75 52.50 L 102.32 51.89 L 103.94 51.40 L 105.60 51.01 L 107.29 50.70 L 109.01 50.44 L 110.71 50.16 L 112.41 49.86 L 114.13 49.65 L 115.88 49.61 L 117.63 49.73 L 119.35 49.97 L 121.05 50.26 L 122.75 50.54 L 124.44 50.85 L 126.11 51.22 L 127.76 51.64 L 129.38 52.13 L 130.94 52.75 L 132.46 53.48 L 133.96 54.25 L 135.47 54.99 L 136.98 55.75 L 138.44 56.62 L 139.84 57.63 L 141.19 58.78 L 142.50 60.02 L 143.79 61.29 L 145.07 62.58 L 146.34 63.87 L 147.54 65.20 L 148.63 66.57 L 149.58 67.99 L 150.44 69.46 L 151.23 70.95 L 151.96 72.47 L 152.66 73.97 L 153.43 75.35 L 154.40 76.44 L 155.68 77.16 L 157.14 77.64 L 158.48 78.24 L 159.33 79.19 L 159.49 80.45 L 159.01 81.85 L 158.10 83.23 L 157.01 84.59 L 155.91 85.95 L 154.85 87.33 L 153.79 88.71 L 152.74 90.10 L 151.70 91.49 L 150.66 92.85 L 149.58 94.12 L 148.41 95.12 L 147.13 95.60 L 145.77 95.38 L 144.47 94.57 L 143.30 93.38 L 142.22 92.04 L 141.16 90.66 L 140.11 89.28 L 139.06 87.89 L 138.01 86.51 L 136.95 85.12 L 135.93 83.73 L 135.00 82.32 L 134.33 80.89 L 134.19 79.52 L 134.71 78.42 L 135.69 77.65 L 136.66 76.98 L 137.12 76.13 L 136.86 75.00 L 136.03 73.73 L 134.88 72.43 L 133.62 71.16 L 132.29 69.97 L 130.91 68.92 L 129.45 68.05 L 127.95 67.26 L 126.45 66.49 L 124.94 65.75 L 123.37 65.14 L 121.74 64.68 L 120.07 64.32 L 118.38 64.00 L 116.68 63.77 L 114.97 63.71 L 113.27 63.88 L 111.59 64.18 L 109.91 64.53 L 108.27 64.96 L 106.68 65.53 L 105.15 66.21 L 103.62 66.93 L 102.12 67.69 L 100.66 68.56 L 99.25 69.57 L 97.91 70.71 L 96.62 71.94 L 95.41 73.25 L 94.33 74.62 L 93.38 76.05 L 92.52 77.52 L 91.73 79.01 L 91.02 80.54 L 90.39 82.10 L 89.88 83.71 L 89.48 85.36 L 89.14 87.04 L 88.86 88.72 L 88.73 90.42 L 88.84 92.12 L 89.11 93.81 L 89.44 95.49 L 89.83 97.15 L 90.32 98.77 L 90.94 100.33 L 91.66 101.85 L 92.45 103.35 L 93.29 104.82 L 94.22 106.25 L 95.29 107.63 L 96.50 108.94 L 97.78 110.19 L 99.12 111.34 L 100.52 112.36 L 101.98 113.22 L 103.49 113.98 L 105.01 114.71 L 106.54 115.41 L 108.12 116.01 L 109.75 116.45 L 111.43 116.80 L 113.11 117.11 L 114.81 117.29 L 116.53 117.26 L 118.23 117.04 L 119.92 116.72 L 121.59 116.36 L 123.22 115.91 L 124.79 115.30 L 126.31 114.57 L 127.82 113.82 L 129.32 113.04 L 130.78 112.17 L 132.17 111.14 L 133.50 109.95 L 134.77 108.68 L 135.97 107.36 L 137.02 105.97 L 137.90 104.52 L 138.73 103.07 L 139.66 101.73 L 140.81 100.66 L 142.23 99.97 L 143.87 99.64 L 145.64 99.53 L 147.44 99.51 L 149.25 99.53 L 150.98 99.64 L 152.50 100.00 L 153.57 100.79 L 154.05 102.02 L 153.97 103.52 L 153.51 105.08 L 152.88 106.63 L 152.17 108.16 L 151.41 109.67 L 150.62 111.16 L 149.81 112.64 L 148.91 114.09 L 147.86 115.47 L 146.66 116.80 L 145.40 118.10 L 144.11 119.39 L 142.82 120.67 L 141.53 121.93 L 140.20 123.12 L 138.81 124.16 L 137.35 125.03 L 135.85 125.80 L 134.35 126.57 L 132.84 127.35 L 131.32 128.07 L 129.76 128.70 L 128.17 129.25 L 126.55 129.73 L 124.90 130.14 L 123.22 130.49 L 121.54 130.82 Z"/>
  </g>
</svg>
